<svg width="34" height="26" viewBox="0 0 34 26" fill="none" xmlns="http://www.w3.org/2000/svg">
<path fill-rule="evenodd" clip-rule="evenodd" d="M17.6909 0.141815C17.1386 0.141815 16.6909 0.58953 16.6909 1.14182V13L17.6069 19.6232C17.4993 19.7827 17.4364 19.9749 17.4364 20.1818V20.7599L17.2371 24.809C17.209 25.3799 17.6643 25.8582 18.2359 25.8582H25.2999L33 25.8582C33.5523 25.8582 34 25.4105 34 24.8582V20.1818C34 19.6295 33.5523 19.1818 33 19.1818H23.4909V13V1.14182C23.4909 0.58953 23.0432 0.141815 22.4909 0.141815H17.6909Z" fill="#02A9FF"/>
<path fill-rule="evenodd" clip-rule="evenodd" d="M17.6909 0.141815C17.1386 0.141815 16.6909 0.58953 16.6909 1.14182V13L17.6069 19.6232C17.4993 19.7827 17.4364 19.9749 17.4364 20.1818V20.7599L17.2371 24.809C17.209 25.3799 17.6643 25.8582 18.2359 25.8582H25.2999L33 25.8582C33.5523 25.8582 34 25.4105 34 24.8582V20.1818C34 19.6295 33.5523 19.1818 33 19.1818H23.4909V13V1.14182C23.4909 0.58953 23.0432 0.141815 22.4909 0.141815H17.6909Z" fill="white" fill-opacity="0.2"/>
<path fill-rule="evenodd" clip-rule="evenodd" d="M8.53091 0.141815H9.76727H15.0836H16.32L24.8921 25.8582H17.4739L16.1401 21.4073H8.74489L7.41818 25.8582H0L8.53091 0.141815ZM10.4401 15.72H14.4357L12.4326 9.03568L10.4401 15.72Z" fill="white"/>
</svg>
