<svg width="32" height="22" viewBox="0 0 32 22" fill="none" xmlns="http://www.w3.org/2000/svg">
<path id="Vector" d="M5.24005 1.84247C7.27678 0.969333 9.42693 0.349904 11.6356 0C11.9378 0.505909 12.2113 1.02642 12.4548 1.55936C14.8075 1.2274 17.2 1.2274 19.5526 1.55936C19.7963 1.02648 20.0697 0.50597 20.3718 0C22.5819 0.352858 24.7335 0.973759 26.7723 1.84703C30.8198 7.45434 31.917 12.9224 31.3684 18.3128C28.998 19.9526 26.345 21.1998 23.5245 22C22.8894 21.2002 22.3274 20.3517 21.8445 19.4635C22.7617 19.1427 23.647 18.747 24.49 18.2808C24.2682 18.1301 24.0512 17.9749 23.8415 17.8242C21.3884 18.9044 18.7109 19.4645 16.0001 19.4645C13.2892 19.4645 10.6118 18.9044 8.15864 17.8242C7.94651 17.9863 7.7295 18.1416 7.51006 18.2808C8.35476 18.7477 9.24162 19.1442 10.1604 19.4658C9.67814 20.3535 9.11613 21.2013 8.48049 22C5.6576 21.203 3.0025 19.9564 0.631752 18.3151C-0.0119457 12.0639 1.73141 6.64612 5.24005 1.84247ZM21.1496 14.9977C22.6784 14.9977 23.9414 13.6986 23.9414 12.1005C23.9414 10.5023 22.7223 9.19178 21.1545 9.19178C19.5867 9.19178 18.3335 10.5023 18.3603 12.1005C18.3871 13.6986 19.5916 14.9977 21.1496 14.9977ZM10.8505 14.9977C12.3817 14.9977 13.6398 13.6986 13.6398 12.1005C13.6398 10.5023 12.4207 9.19178 10.8505 9.19178C9.28023 9.19178 8.03672 10.5023 8.06354 12.1005C8.09036 13.6986 9.29242 14.9977 10.8505 14.9977Z" fill="white"/>
</svg>
