<svg width="26" height="28" viewBox="0 0 26 28" fill="none" xmlns="http://www.w3.org/2000/svg">
<path id="Vector" d="M4.50572 0.0353737C5.58968 -0.12342 7.10942 0.239136 9.07316 1.39285L9.44591 1.6191L9.66517 1.75962L10.2092 1.64299C12.2837 1.23193 14.412 1.19389 16.4992 1.53057L17.1241 1.64299L17.6668 1.75962L17.8874 1.6191C19.7854 0.438683 21.2955 -0.0250523 22.4398 0.0058634L22.6645 0.0171053L22.866 0.040995L22.9701 0.0606685L23.0386 0.0761262L23.236 0.142174C23.559 0.279125 23.8189 0.537521 23.9623 0.864476C24.523 2.14565 24.7119 3.56539 24.5063 4.95378L24.4419 5.32898L24.3789 5.60441L24.5474 5.83347C25.334 6.95065 25.8219 8.26175 25.9589 9.6375L25.9904 10.052L26 10.4343C26 15.8515 23.7266 18.7014 19.636 19.8214L19.3003 19.9071L19.1194 19.9479L19.1385 20.1741L19.1495 20.3947L19.155 20.9077L19.1523 21.207L19.1481 26.5947C19.1481 26.9389 19.0249 27.2711 18.8018 27.5284C18.5788 27.7856 18.2714 27.9499 17.9381 27.9902L17.7778 28H9.55554C9.21989 28 8.89592 27.8736 8.6451 27.6449C8.39427 27.4162 8.23403 27.101 8.19476 26.7592L8.18516 26.5947V25.5633C5.69383 25.9287 4.03294 24.9675 2.55294 22.9242L1.81979 21.8478C1.43608 21.2913 1.19627 21.0341 1.01264 20.9428L0.94686 20.9161C0.60757 20.803 0.324652 20.5587 0.158234 20.2352C-0.00818351 19.9116 -0.0449801 19.5342 0.0556646 19.1832C0.156309 18.8322 0.386461 18.5353 0.697204 18.3556C1.00795 18.1759 1.37478 18.1275 1.71975 18.2208C2.59953 18.485 3.19153 19.019 3.87123 19.9619L4.60849 21.0426C5.64998 22.5588 6.4722 23.0928 8.18379 22.7162L8.18516 21.7635L8.1605 21.5274C8.12003 21.1429 8.1104 20.7556 8.13172 20.3695L8.15502 20.1095L8.18105 19.9408L8.03305 19.9071C3.95483 18.9094 1.58819 16.2914 1.35249 11.2802L1.33879 10.8446L1.3333 10.4343C1.33489 8.91179 1.76712 7.42247 2.5776 6.14684L2.7859 5.83487L2.95308 5.60582L2.89142 5.33038C2.64436 4.09595 2.71281 2.81699 3.09012 1.61769L3.22716 1.22141L3.37242 0.865881C3.51548 0.539186 3.77478 0.280827 4.09735 0.143579L4.29468 0.0775317L4.50572 0.0353737Z" fill="white"/>
</svg>
