<svg width="30" height="24" viewBox="0 0 30 24" fill="none" xmlns="http://www.w3.org/2000/svg">
<path id="Vector" d="M17.7129 0.68201C15.3313 1.70284 13.7656 3.94681 13.6852 6.51153L13.6825 6.75376L13.3623 6.72315C10.2096 6.36512 7.43396 4.71076 5.52815 2.0236C5.3991 1.84148 5.22663 1.69519 5.02672 1.59827C4.8268 1.50135 4.6059 1.45694 4.38446 1.46915C4.16303 1.48136 3.94823 1.54979 3.75995 1.66812C3.57167 1.78644 3.416 1.95082 3.30735 2.14604L3.17951 2.3936L3.11492 2.52536C2.16729 4.50181 1.54652 6.90415 1.77453 9.45024L1.81407 9.81359C2.18706 12.8255 3.79105 15.4235 6.79474 17.372L7.02275 17.5144L6.91599 17.5716C5.18284 18.454 3.59731 18.8387 1.87207 18.7695C0.480274 18.7162 -0.0337399 20.5955 1.18935 21.269C5.93146 23.879 11.0228 24.6842 15.413 23.3985C20.764 21.828 24.8393 17.7779 26.3984 12.1747L26.5658 11.5159C26.8795 10.1942 27.0561 8.84599 27.0943 7.4911L27.0983 7.04923L27.6162 6.01242L28.1962 4.86515L28.4782 4.28753L28.6337 3.95878C28.983 3.2068 29.2347 2.58392 29.3903 2.05554L29.4087 1.98101L29.4193 1.95705C29.7092 1.1678 29.2005 0.149634 28.179 0.149634L28.0182 0.158951C27.9141 0.171876 27.8119 0.197345 27.7138 0.234814L27.6004 0.28539C27.2243 0.469845 26.8369 0.629882 26.4406 0.764528L25.9714 0.917586L25.6142 1.02406L24.5967 1.30888C22.8359 -0.179108 20.453 -0.360116 17.991 0.571542L17.7129 0.68201Z" fill="white"/>
</svg>
